# xmcd
#
# Track frame offsets: 
#        150
#        18562
#        34432
#        50615
#        63320
#        79182
#        91152
#        112455
#        129380
#        146955
#        159690
#        174787
#        193175
#        210622
#
# Disc length: 3003 seconds
#
# Revision: 6
# Processed by: cddbd v1.5.2PL0 Copyright (c) Steve Scherf et al.
# Submitted via: ExactAudioCopy v1.3
#
DISCID=cf0bb90e
DTITLE=Vários Artistas - Samba and Pagode - Vol.04
DYEAR=1994
DGENRE=Samba
TTITLE0=Grupo Tempero - Sexo Falado
TTITLE1=Banda Raça Negra - Quando Te Encontrei
TTITLE2=Grupo Raça - Tô Legal
TTITLE3=Wander Pires - Celular
TTITLE4=Dicró - O Bingo
TTITLE5=Jair Rodrigues - Travado da Silva
TTITLE6=Bezerra Da Silva - Over Dose de Cocada
TTITLE7=Eros Fidelis - É Hoje
TTITLE8=Razão Brasileira - Eu Menti
TTITLE9=Zeca Pagodinho - Cabelo No Pão Careca
TTITLE10=Só Preto Sem Preconceito - Quem Tá Duro Reza Pra Chover
TTITLE11=Negritude Jr. - Conto de Fadas
TTITLE12=Gerson and Romário - Romário Bola de Ouro
TTITLE13=Ginga Pura - Castelo de Emoções
EXTD=YEAR: 1994
EXTT0=
EXTT1=
EXTT2=
EXTT3=
EXTT4=
EXTT5=
EXTT6=
EXTT7=
EXTT8=
EXTT9=
EXTT10=
EXTT11=
EXTT12=
EXTT13=
PLAYORDER=
